<svg xmlns="http://www.w3.org/2000/svg" xmlns:svg="http://www.w3.org/2000/svg" xmlns:xlink="http://www.w3.org/1999/xlink" id="svg2" width="512" height="512" version="1.1" viewBox="0 0 512 512"><defs id="defs4"><linearGradient id="linearGradient2460" x1="19.245" x2="19.36" y1="21.031" y2="44.984" gradientUnits="userSpaceOnUse"><stop id="stop3602" offset="0" stop-color="#fafafa" stop-opacity="1"/><stop id="stop3604" offset="1" stop-color="#f0f0f0" stop-opacity="1"/></linearGradient><linearGradient id="ButtonShadow-0-1-1-5-9" x1="45.448" x2="45.448" y1="92.54" y2="7.017" gradientTransform="matrix(1.0058652,0,0,0.994169,100,0)" gradientUnits="userSpaceOnUse"><stop id="stop3750-8-9-3-6-4" offset="0" stop-color="#000" stop-opacity="1"/><stop id="stop3752-5-6-4-2-9" offset="1" stop-color="#000" stop-opacity=".588"/></linearGradient><linearGradient id="linearGradient3737-9"><stop id="stop3739-7" offset="0" stop-color="#fff" stop-opacity="1"/><stop id="stop3741-4" offset="1" stop-color="#fff" stop-opacity="0"/></linearGradient><linearGradient id="linearGradient4046-3"><stop id="stop4048-7" offset="0" stop-color="#000" stop-opacity="1"/><stop id="stop4050-73" offset="1" stop-color="#fff" stop-opacity=".2"/></linearGradient><linearGradient id="outerBackgroundGradient"><stop id="stop3864-8-6" offset="0" stop-color="#21759b" stop-opacity="1"/><stop id="stop3866-9-1" offset="1" stop-color="#478aa9" stop-opacity="1"/></linearGradient><linearGradient id="linearGradient3147" x1="272" x2="272" y1="288" y2="32" gradientTransform="translate(-34,-50)" gradientUnits="userSpaceOnUse" xlink:href="#outerBackgroundGradient"/><linearGradient id="linearGradient4076" x1="24.508" x2="55.492" y1="35.528" y2="35.528" gradientTransform="matrix(0,8.0025161,-7.0781939,0,495.91135,31.899346)" gradientUnits="userSpaceOnUse" xlink:href="#linearGradient4281-6"/><linearGradient id="linearGradient4281-6"><stop id="stop4283-9" offset="0" stop-color="#1e1e1e" stop-opacity="1"/><stop id="stop4285-8" offset="1" stop-color="#505050" stop-opacity="1"/></linearGradient><linearGradient id="linearGradient3242-52-665-9"><stop id="stop2903-7" offset="0" stop-color="#787878" stop-opacity="1"/><stop id="stop2905-7" offset=".262" stop-color="#5a5a5a" stop-opacity="1"/><stop id="stop2907-9" offset=".661" stop-color="#3c3c3c" stop-opacity="1"/><stop id="stop2909-6" offset="1" stop-color="#141414" stop-opacity="1"/></linearGradient><linearGradient id="linearGradient1022-8-8-3-0-05-8" x2="0" y1="3.007" y2="11.024" gradientUnits="userSpaceOnUse"><stop id="stop3001-0-9-4-49-54" offset="0"/><stop id="stop3003-5-6-6-8-77" offset="1" stop-color="#363636"/></linearGradient><linearGradient id="linearGradient1022-8-8-3-0-05-2" x2="0" y1="3.007" y2="11.024" gradientUnits="userSpaceOnUse"><stop id="stop3001-0-9-4-49-85" offset="0"/><stop id="stop3003-5-6-6-8-8" offset="1" stop-color="#363636"/></linearGradient><linearGradient id="linearGradient4252" x1="1012.513" x2="1006.808" y1="484.417" y2="20.626" gradientTransform="matrix(1.0317796,0,0,1.0317796,-830.86406,592.67791)" gradientUnits="userSpaceOnUse" xlink:href="#ButtonShadow-0-1-1-5-9"/><linearGradient id="linearGradient4254" x1="1012.513" x2="1006.808" y1="484.417" y2="20.626" gradientTransform="matrix(1.0402541,0,0,1.0402541,-837.95116,592.51825)" gradientUnits="userSpaceOnUse" xlink:href="#ButtonShadow-0-1-1-5-9"/><linearGradient id="linearGradient4256" x1="1012.513" x2="1006.808" y1="484.417" y2="20.626" gradientTransform="matrix(1.023305,0,0,1.023305,-823.77704,592.83757)" gradientUnits="userSpaceOnUse" xlink:href="#ButtonShadow-0-1-1-5-9"/><linearGradient id="linearGradient4258" x1="1012.513" x2="1006.808" y1="484.417" y2="20.626" gradientTransform="matrix(1.0148305,0,0,1.0148305,-816.68996,592.99723)" gradientUnits="userSpaceOnUse" xlink:href="#ButtonShadow-0-1-1-5-9"/><linearGradient id="linearGradient4260" x1="1012.513" x2="1006.808" y1="484.417" y2="20.626" gradientTransform="matrix(1.0074153,0,0,1.0074153,-810.48879,593.1369)" gradientUnits="userSpaceOnUse" xlink:href="#ButtonShadow-0-1-1-5-9"/><linearGradient id="linearGradient4264" x1="993.439" x2="988.786" y1="51.512" y2="363.738" gradientTransform="translate(778.59979,-360.55963)" gradientUnits="userSpaceOnUse" xlink:href="#linearGradient3737-9"/><linearGradient id="linearGradient4266" x1="1764.649" x2="1763.69" y1="155.597" y2="-55.941" gradientUnits="userSpaceOnUse" xlink:href="#linearGradient4046-3"/><linearGradient id="linearGradient1022-8-8-3-0-05-2-4" x2="0" y1="3.007" y2="11.024" gradientUnits="userSpaceOnUse"><stop id="stop3001-0-9-4-49-85-0" offset="0"/><stop id="stop3003-5-6-6-8-8-4" offset="1" stop-color="#363636"/></linearGradient></defs><metadata id="metadata7"/><g id="g4226" transform="translate(-11.98503,-592.11719)"><rect id="rect4228" width="487" height="487" x="31.985" y="612.117" fill="url(#linearGradient4252)" fill-opacity="1" fill-rule="nonzero" stroke="none" stroke-width="1.5" color="#000" display="inline" enable-background="accumulate" opacity=".1" overflow="visible" ry="101.458" visibility="visible" style="marker:none"/><rect id="rect4230" width="491" height="491" x="31.985" y="612.117" fill="url(#linearGradient4254)" fill-opacity="1" fill-rule="nonzero" stroke="none" stroke-width="1.5" color="#000" display="inline" enable-background="accumulate" opacity=".08" overflow="visible" ry="102.292" visibility="visible" style="marker:none"/><rect id="rect4232" width="483" height="483" x="31.985" y="612.117" fill="url(#linearGradient4256)" fill-opacity="1" fill-rule="nonzero" stroke="none" stroke-width="1.5" color="#000" display="inline" enable-background="accumulate" opacity=".2" overflow="visible" ry="100.625" visibility="visible" style="marker:none"/><rect id="rect4234" width="479" height="479" x="31.985" y="612.117" fill="url(#linearGradient4258)" fill-opacity="1" fill-rule="nonzero" stroke="none" stroke-width="1.5" color="#000" display="inline" enable-background="accumulate" opacity=".25" overflow="visible" ry="99.792" visibility="visible" style="marker:none"/><rect id="rect4236" width="475.5" height="475.5" x="31.985" y="612.117" fill="url(#linearGradient4260)" fill-opacity="1" fill-rule="nonzero" stroke="none" stroke-width="1.5" color="#000" display="inline" enable-background="accumulate" opacity=".25" overflow="visible" ry="99.063" visibility="visible" style="marker:none"/></g><path id="path4238" fill="#6fa91f" fill-opacity="1" fill-rule="nonzero" stroke="none" stroke-dasharray="none" stroke-dashoffset="0" stroke-linecap="butt" stroke-linejoin="miter" stroke-miterlimit="4" stroke-opacity="1" stroke-width="1" d="m 118.34377,20.000007 c -54.4766,0 -98.3437,43.867084 -98.3437,98.343743 l 0,23.0625 0,252.25 c 0,54.47666 43.8671,98.34375 98.3437,98.34375 l 275.3126,0 c 54.4766,0 98.3437,-43.86709 98.3437,-98.34375 l 0,-252.25 0,-23.0625 c 0,-54.476659 -43.8671,-98.343743 -98.3437,-98.343743 l -275.3126,0 z" color="#bebebe" display="inline" enable-background="accumulate" opacity="1" overflow="visible" visibility="visible" style="marker:none"/><path id="path4949" fill="#000" fill-opacity=".157" fill-rule="nonzero" stroke="none" stroke-dasharray="none" stroke-dashoffset="0" stroke-linecap="round" stroke-linejoin="round" stroke-miterlimit="4" stroke-opacity="1" stroke-width="10" d="m 306.47047,141 -91.7637,0.0176 c -4.4545,0.002 -6.6837,5.38793 -3.5332,8.53711 l 106.5137,106.51365 -24.9981,24.9707 -28.5683,-28.56836 -110.1152,-109.99023 c -0.9374,-0.93649 -2.2082,-1.46264 -3.5333,-1.46289 l -55.0605,0 c -2.7613,2.8e-4 -4.9997,2.23869 -5,5 l 0,219.98242 c 3e-4,2.76131 2.2387,4.99972 5,5 l 121,121 177.2442,0 c 54.4766,0 98.3437,-43.86709 98.3437,-98.34375 l 0,-67.12695 -70.418,-70.41797 c 0.025,-1.04818 -0.2793,-2.07783 -0.8711,-2.94336 l 71.2891,71.28906 0,-0.125 -71.8789,-71.87891 -110.1153,-109.99023 c -0.9378,-0.93697 -2.2094,-1.46315 -3.5351,-1.46289 z" baseline-shift="baseline" clip-rule="nonzero" color="#000" color-interpolation="sRGB" color-interpolation-filters="linearRGB" color-rendering="auto" direction="ltr" font-family="sans-serif" font-size="medium" font-stretch="normal" font-style="normal" font-variant="normal" font-weight="normal" image-rendering="auto" letter-spacing="normal" shape-rendering="auto" text-anchor="start" text-decoration="none" text-rendering="auto" visibility="visible" word-spacing="normal" writing-mode="lr-tb" style="line-height:normal;text-indent:0;text-align:start;text-decoration-line:none;text-decoration-style:solid;text-decoration-color:#000;text-transform:none;block-progression:tb;white-space:normal;shape-padding:0;isolation:auto;mix-blend-mode:normal;solid-color:#000;solid-opacity:1;marker:none"/><path id="path4945" fill="#000" fill-opacity=".157" fill-rule="nonzero" stroke="none" stroke-dasharray="none" stroke-dashoffset="0" stroke-linecap="round" stroke-linejoin="round" stroke-miterlimit="4" stroke-opacity="1" stroke-width="10" d="m 264.71067,253.18555 27.916,27.91601 -1.0351,1.03516 -26.0098,-26.00977 c 0.025,-1.04752 -0.2797,-2.07642 -0.8711,-2.9414 z" baseline-shift="baseline" clip-rule="nonzero" color="#000" color-interpolation="sRGB" color-interpolation-filters="linearRGB" color-rendering="auto" direction="ltr" font-family="sans-serif" font-size="medium" font-stretch="normal" font-style="normal" font-variant="normal" font-weight="normal" image-rendering="auto" letter-spacing="normal" shape-rendering="auto" text-anchor="start" text-decoration="none" text-rendering="auto" visibility="visible" word-spacing="normal" writing-mode="lr-tb" style="line-height:normal;text-indent:0;text-align:start;text-decoration-line:none;text-decoration-style:solid;text-decoration-color:#000;text-transform:none;block-progression:tb;white-space:normal;shape-padding:0;isolation:auto;mix-blend-mode:normal;solid-color:#000;solid-opacity:1;marker:none"/><path id="path4534" fill="#000" fill-opacity=".157" fill-rule="nonzero" stroke="none" stroke-dasharray="none" stroke-dashoffset="0" stroke-linecap="round" stroke-linejoin="round" stroke-miterlimit="4" stroke-opacity="1" stroke-width="10" d="m 239.01737,284.62305 -5.002,4.99804 0,-0.002 z" baseline-shift="baseline" clip-rule="nonzero" color="#000" color-interpolation="sRGB" color-interpolation-filters="linearRGB" color-rendering="auto" direction="ltr" font-family="sans-serif" font-size="medium" font-stretch="normal" font-style="normal" font-variant="normal" font-weight="normal" image-rendering="auto" letter-spacing="normal" shape-rendering="auto" text-anchor="start" text-decoration="none" text-rendering="auto" visibility="visible" word-spacing="normal" writing-mode="lr-tb" style="line-height:normal;text-indent:0;text-align:start;text-decoration-line:none;text-decoration-style:solid;text-decoration-color:#000;text-transform:none;block-progression:tb;white-space:normal;shape-padding:0;isolation:auto;mix-blend-mode:normal;solid-color:#000;solid-opacity:1;marker:none"/><path display="inline" style="line-height:normal;text-indent:0;text-align:start;text-decoration-line:none;text-decoration-style:solid;text-decoration-color:#000;text-transform:none;block-progression:tb;white-space:normal;shape-padding:0;isolation:auto;mix-blend-mode:normal;solid-color:#000;solid-opacity:1;marker:none" id="path4344" fill="#fff" fill-opacity="1" fill-rule="nonzero" stroke="none" stroke-dasharray="none" stroke-dashoffset="0" stroke-linecap="round" stroke-linejoin="round" stroke-miterlimit="4" stroke-opacity="1" stroke-width="10" d="m 306.47047,141 -91.7637,0.0176 a 5.0005,5.0005 0 0 0 -3.5332,8.53711 l 106.5742,106.45312 -106.5742,106.45508 A 5.0005,5.0005 0 0 0 214.70877,371 l 91.7636,-0.0176 a 5.0005,5.0005 0 0 0 3.5333,-1.46289 L 420.12087,259.5293 a 5.0005,5.0005 0 0 0 0,-7.07618 L 310.00567,142.46289 A 5.0005,5.0005 0 0 0 306.47047,141 Z m -211.0586,0.0176 a 5.0005,5.0005 0 0 0 -5,5 l 0,219.98242 a 5.0005,5.0005 0 0 0 5,5 l 55.0605,0 a 5.0005,5.0005 0 0 0 3.5333,-1.46289 l 110.1152,-109.99025 a 5.0005,5.0005 0 0 0 0,-7.07618 L 154.00567,142.48047 a 5.0005,5.0005 0 0 0 -3.5333,-1.46289 l -55.0605,0 z" baseline-shift="baseline" clip-rule="nonzero" color="#000" color-interpolation="sRGB" color-interpolation-filters="linearRGB" color-rendering="auto" direction="ltr" enable-background="accumulate" font-family="sans-serif" font-size="medium" font-stretch="normal" font-style="normal" font-variant="normal" font-weight="normal" image-rendering="auto" letter-spacing="normal" opacity="1" overflow="visible" shape-rendering="auto" text-anchor="start" text-decoration="none" text-rendering="auto" visibility="visible" word-spacing="normal" writing-mode="lr-tb"/><g id="g4240" transform="translate(-605.51932,-353.96833)"><g id="g4242" transform="translate(-926.66758,684.38448)"><path id="path4244" fill="url(#linearGradient4264)" fill-opacity="1" fill-rule="nonzero" stroke="none" stroke-width="1.5" d="m 1650.4994,-310.41615 c -54.4767,0 -98.3125,43.83583 -98.3125,98.3125 l 0,275.343747 c 0,54.476673 43.8358,98.343753 98.3125,98.343753 l 2.9375,0 c -53.3225,0 -96.25,-42.9275 -96.25,-96.250003 l 0,-269.499997 c 0,-53.3225 42.9275,-96.25 96.25,-96.25 l 269.5001,0 c 53.3225,0 96.25,42.9275 96.25,96.25 l 0,269.499997 c 0,53.322503 -42.9275,96.250003 -96.25,96.250003 l 2.9062,0 c 54.4767,0 98.3438,-43.86708 98.3438,-98.343753 l 0,-275.343747 c 0,-54.47667 -43.8671,-98.3125 -98.3438,-98.3125 l -275.3438,0 z" color="#000" display="inline" enable-background="accumulate" opacity=".5" overflow="visible" visibility="visible" style="marker:none"/><path id="path4246" fill="url(#linearGradient4266)" fill-opacity="1" fill-rule="nonzero" stroke="none" stroke-width="1.5" d="m 1650.4994,161.58385 c -54.4767,0 -98.3125,-43.83583 -98.3125,-98.312503 l 0,-275.343747 c 0,-54.47667 43.8358,-98.34375 98.3125,-98.34375 l 2.9375,0 c -53.3225,0 -96.25,42.9275 -96.25,96.25 l 0,269.499997 c 0,53.322503 42.9275,96.250003 96.25,96.250003 l 269.5001,0 c 53.3225,0 96.25,-42.9275 96.25,-96.250003 l 0,-269.499997 c 0,-53.3225 -42.9275,-96.25 -96.25,-96.25 l 2.9062,0 c 54.4767,0 98.3438,43.86708 98.3438,98.34375 l 0,275.343747 c 0,54.476673 -43.8671,98.312503 -98.3438,98.312503 l -275.3438,0 z" color="#000" display="inline" enable-background="accumulate" opacity=".2" overflow="visible" visibility="visible" style="marker:none"/></g></g></svg>