<svg xmlns="http://www.w3.org/2000/svg" xmlns:svg="http://www.w3.org/2000/svg" xmlns:xlink="http://www.w3.org/1999/xlink" id="svg2" width="512" height="512" version="1.1"><defs id="defs4"><linearGradient id="linearGradient2460" x1="19.245" x2="19.36" y1="21.031" y2="44.984" gradientUnits="userSpaceOnUse"><stop id="stop3602" offset="0" stop-color="#fafafa" stop-opacity="1"/><stop id="stop3604" offset="1" stop-color="#f0f0f0" stop-opacity="1"/></linearGradient><linearGradient id="linearGradient4114-2-6" x1="1012.513" x2="1006.808" y1="484.417" y2="20.626" gradientTransform="matrix(1.0317796,0,0,1.0317796,-830.86406,592.67791)" gradientUnits="userSpaceOnUse" xlink:href="#ButtonShadow-0-1-1-5-9"/><linearGradient id="ButtonShadow-0-1-1-5-9" x1="45.448" x2="45.448" y1="92.54" y2="7.017" gradientTransform="matrix(1.0058652,0,0,0.994169,100,0)" gradientUnits="userSpaceOnUse"><stop id="stop3750-8-9-3-6-4" offset="0" stop-color="#000" stop-opacity="1"/><stop id="stop3752-5-6-4-2-9" offset="1" stop-color="#000" stop-opacity=".588"/></linearGradient><linearGradient id="linearGradient4112-2-6" x1="1012.513" x2="1006.808" y1="484.417" y2="20.626" gradientTransform="matrix(1.0402541,0,0,1.0402541,-837.95116,592.51825)" gradientUnits="userSpaceOnUse" xlink:href="#ButtonShadow-0-1-1-5-9"/><linearGradient id="linearGradient4110-6-7" x1="1012.513" x2="1006.808" y1="484.417" y2="20.626" gradientTransform="matrix(1.023305,0,0,1.023305,-823.77704,592.83757)" gradientUnits="userSpaceOnUse" xlink:href="#ButtonShadow-0-1-1-5-9"/><linearGradient id="linearGradient4116-6-3" x1="1012.513" x2="1006.808" y1="484.417" y2="20.626" gradientTransform="matrix(1.0148305,0,0,1.0148305,-816.68996,592.99723)" gradientUnits="userSpaceOnUse" xlink:href="#ButtonShadow-0-1-1-5-9"/><linearGradient id="linearGradient5342-3" x1="1012.513" x2="1006.808" y1="484.417" y2="20.626" gradientTransform="matrix(1.0074153,0,0,1.0074153,-810.48879,593.1369)" gradientUnits="userSpaceOnUse" xlink:href="#ButtonShadow-0-1-1-5-9"/><linearGradient id="linearGradient4084-8" x1="993.439" x2="988.786" y1="51.512" y2="363.738" gradientTransform="translate(778.59979,-360.55963)" gradientUnits="userSpaceOnUse" xlink:href="#linearGradient3737-9"/><linearGradient id="linearGradient3737-9"><stop id="stop3739-7" offset="0" stop-color="#fff" stop-opacity="1"/><stop id="stop3741-4" offset="1" stop-color="#fff" stop-opacity="0"/></linearGradient><linearGradient id="linearGradient4086-12" x1="1764.649" x2="1763.69" y1="155.597" y2="-55.941" gradientUnits="userSpaceOnUse" xlink:href="#linearGradient4046-3"/><linearGradient id="linearGradient4046-3"><stop id="stop4048-7" offset="0" stop-color="#000" stop-opacity="1"/><stop id="stop4050-73" offset="1" stop-color="#fff" stop-opacity=".2"/></linearGradient><linearGradient id="linearGradient3210" x1="48" x2="48" y1="78" y2="5.988" gradientTransform="translate(0,8)" gradientUnits="userSpaceOnUse" xlink:href="#linearGradient3187-7"/><linearGradient id="linearGradient3187-7"><stop id="stop3189-4" offset="0" stop-color="#c29656" stop-opacity="1"/><stop id="stop3191-1" offset="1" stop-color="#ddc08b" stop-opacity="1"/></linearGradient><linearGradient id="linearGradient3212" x1="48.022" x2="48.022" y1="22.933" y2="81.481" gradientUnits="userSpaceOnUse" xlink:href="#linearGradient3874"/><linearGradient id="linearGradient3874"><stop id="stop3876" offset="0" stop-color="#fff" stop-opacity="1"/><stop id="stop3878" offset="1" stop-color="#fff" stop-opacity="0"/></linearGradient><clipPath id="clipPath3860"><rect id="rect3862" width="84" height="72" x="6" y="18" fill="#f0f" fill-opacity="1" fill-rule="nonzero" stroke="none" rx="6" ry="6"/></clipPath><filter id="filter3870" width="1.331" height="1.394" x="-.166" y="-.197" color-interpolation-filters="sRGB"><feGaussianBlur id="feGaussianBlur3872" stdDeviation="5.17"/></filter><linearGradient id="linearGradient3214" x1="36.357" x2="36.357" y1="16" y2="73.995" gradientUnits="userSpaceOnUse" xlink:href="#linearGradient3737-8"/><linearGradient id="linearGradient3737-8"><stop id="stop3739-8" offset="0" stop-color="#fff" stop-opacity="1"/><stop id="stop3741-8" offset="1" stop-color="#fff" stop-opacity="0"/></linearGradient><linearGradient id="linearGradient3073-8" x1="34.86" x2="34.86" y1="16.275" y2="26.987" gradientTransform="matrix(0.7957895,0,0,0.7957895,87.069475,1.0667086)" gradientUnits="userSpaceOnUse" xlink:href="#linearGradient4008-4"/><linearGradient id="linearGradient4008-4"><stop id="stop4010-2" offset="0" stop-color="#dab980" stop-opacity="1"/><stop id="stop4012-5" offset=".717" stop-color="#c29856" stop-opacity="1"/><stop id="stop4014-6" offset="1" stop-color="#a2773a" stop-opacity="1"/></linearGradient><radialGradient id="radialGradient3061" cx="48" cy="90.172" r="42" fx="48" fy="90.172" gradientTransform="matrix(1.1573129,0,0,0.99590774,-7.551021,0.197132)" gradientUnits="userSpaceOnUse" xlink:href="#linearGradient3737-5"/><linearGradient id="linearGradient3737-5"><stop id="stop3739-0" offset="0" stop-color="#fff" stop-opacity="1"/><stop id="stop3741-4-3" offset="1" stop-color="#fff" stop-opacity="0"/></linearGradient><radialGradient id="radialGradient3260" cx="48" cy="90.172" r="42" fx="48" fy="90.172" gradientTransform="matrix(1.1573129,0,0,0.99590774,-7.551021,0.197132)" gradientUnits="userSpaceOnUse" xlink:href="#linearGradient3737-5"/><radialGradient id="radialGradient3119" cx="48" cy="90.172" r="42" fx="48" fy="90.172" gradientTransform="matrix(6.502996,0,0,5.5960528,-658.91278,-27.932797)" gradientUnits="userSpaceOnUse" xlink:href="#linearGradient3737-5"/><linearGradient id="linearGradient3126" x1="34.86" x2="34.86" y1="16.275" y2="26.987" gradientTransform="matrix(0.7957895,0,0,0.7957895,87.069475,1.0667086)" gradientUnits="userSpaceOnUse" xlink:href="#linearGradient4008-4"/><linearGradient id="linearGradient3130" x1="34.86" x2="34.86" y1="16.275" y2="26.987" gradientTransform="matrix(4.4715789,0,0,4.4715789,-127.23573,-23.046605)" gradientUnits="userSpaceOnUse" xlink:href="#linearGradient4008-4"/><linearGradient id="linearGradient3133" x1="36.357" x2="36.357" y1="16" y2="73.995" gradientTransform="matrix(5.6190474,0,0,4.9043651,-110.76903,27.465268)" gradientUnits="userSpaceOnUse" xlink:href="#linearGradient3737-8"/><linearGradient id="linearGradient3137" x1="48" x2="48" y1="78" y2="5.988" gradientTransform="matrix(5.6190474,0,0,4.9043651,491.99998,40.207937)" gradientUnits="userSpaceOnUse" xlink:href="#linearGradient3187-7"/><linearGradient id="linearGradient3141" x1="34.86" x2="34.86" y1="16.275" y2="26.987" gradientTransform="matrix(4.4715789,0,0,4.4715789,46.550519,-81.595434)" gradientUnits="userSpaceOnUse" xlink:href="#linearGradient4008-4"/><linearGradient id="linearGradient3141-5" x1="34.86" x2="34.86" y1="16.275" y2="32.734" gradientTransform="matrix(4.4715789,0,0,4.4715789,475.53325,-30.196581)" gradientUnits="userSpaceOnUse" xlink:href="#linearGradient4008-4-7"/><linearGradient id="linearGradient4008-4-7"><stop id="stop4010-2-0" offset="0" stop-color="#dab980" stop-opacity="1"/><stop id="stop4012-5-1" offset=".717" stop-color="#c29856" stop-opacity="1"/><stop id="stop4014-6-6" offset="1" stop-color="#a2773a" stop-opacity="1"/></linearGradient><linearGradient id="linearGradient3159" x1="34.86" x2="34.86" y1="16.275" y2="26.987" gradientTransform="matrix(4.4715789,0,0,4.4715789,455.53323,-72.672777)" gradientUnits="userSpaceOnUse" xlink:href="#linearGradient4008-4-7"/><linearGradient id="linearGradient3179" x1="48.022" x2="48.022" y1="22.933" y2="81.481" gradientUnits="userSpaceOnUse" xlink:href="#linearGradient3874"/><linearGradient id="linearGradient3185" x1="34.86" x2="35.302" y1="16.275" y2="28.313" gradientTransform="matrix(4.4715789,0,0,4.4715789,475.53325,-30.196581)" gradientUnits="userSpaceOnUse" xlink:href="#linearGradient4008-4-7"/><linearGradient id="linearGradient3194" x1="48" x2="48" y1="78" y2="5.988" gradientTransform="matrix(5.6190474,0,0,4.9043651,491.99998,40.207937)" gradientUnits="userSpaceOnUse" xlink:href="#linearGradient3187-7"/><linearGradient id="linearGradient3194-0" x1="48" x2="48" y1="78" y2="5.988" gradientTransform="matrix(5.6190474,0,0,4.9043651,491.99998,40.207937)" gradientUnits="userSpaceOnUse" xlink:href="#linearGradient3187-7-5"/><linearGradient id="linearGradient3187-7-5"><stop id="stop3189-4-5" offset="0" stop-color="#c29656" stop-opacity="1"/><stop id="stop3191-1-8" offset="1" stop-color="#ddc08b" stop-opacity="1"/></linearGradient><linearGradient id="linearGradient3212-5" x1="48" x2="48" y1="78" y2="5.988" gradientTransform="matrix(5.6190474,0,0,4.9043651,471.99998,-28.448313)" gradientUnits="userSpaceOnUse" xlink:href="#linearGradient3187-7-5"/><linearGradient id="linearGradient3231" x1="34.86" x2="34.994" y1="16.275" y2="28.906" gradientTransform="matrix(4.4715789,0,0,4.4715789,475.53325,-30.196581)" gradientUnits="userSpaceOnUse" xlink:href="#linearGradient4008-4-7"/><linearGradient id="linearGradient3236" x1="993.439" x2="988.786" y1="51.512" y2="363.738" gradientTransform="translate(778.59979,-360.55963)" gradientUnits="userSpaceOnUse" xlink:href="#linearGradient3737-9"/><linearGradient id="linearGradient3238" x1="1764.649" x2="1763.69" y1="155.597" y2="-55.941" gradientUnits="userSpaceOnUse" xlink:href="#linearGradient4046-3"/><linearGradient id="linearGradient3241" x1="1764.649" x2="1763.69" y1="155.597" y2="-55.941" gradientTransform="translate(-1532.187,330.41615)" gradientUnits="userSpaceOnUse" xlink:href="#linearGradient4046-3"/><linearGradient id="linearGradient3244" x1="993.439" x2="988.786" y1="51.512" y2="363.738" gradientTransform="translate(-753.58721,-30.14348)" gradientUnits="userSpaceOnUse" xlink:href="#linearGradient3737-9"/><linearGradient id="linearGradient3297" x1="48" x2="48" y1="78" y2="5.988" gradientTransform="matrix(5.6190474,0,0,4.9043651,491.99998,46.207937)" gradientUnits="userSpaceOnUse" xlink:href="#linearGradient3187-7-5"/><linearGradient id="linearGradient3306" x1="34.86" x2="34.585" y1="16.275" y2="30.814" gradientTransform="matrix(4.4715789,0,0,4.4715789,475.53325,-30.196581)" gradientUnits="userSpaceOnUse" xlink:href="#linearGradient4008-4-7"/><linearGradient id="linearGradient3297-2" x1="48" x2="48" y1="78" y2="5.988" gradientTransform="matrix(5.6190474,0,0,4.9043651,491.99998,46.207937)" gradientUnits="userSpaceOnUse" xlink:href="#linearGradient3187-7-5-7"/><linearGradient id="linearGradient3187-7-5-7"><stop id="stop3189-4-5-5" offset="0" stop-color="#c29656" stop-opacity="1"/><stop id="stop3191-1-8-2" offset="1" stop-color="#ddc08b" stop-opacity="1"/></linearGradient><linearGradient id="linearGradient3325" x1="48" x2="48" y1="78" y2="5.988" gradientTransform="matrix(5.6190474,0,0,4.9043651,471.99998,-28.448313)" gradientUnits="userSpaceOnUse" xlink:href="#linearGradient3187-7-5-7"/><linearGradient id="linearGradient3343" x1="48" x2="48" y1="78" y2="5.988" gradientTransform="matrix(5.6190474,0,0,4.9043651,491.99998,46.207937)" gradientUnits="userSpaceOnUse" xlink:href="#linearGradient3187-7-5"/><linearGradient id="linearGradient3352" x1="48" x2="48" y1="78" y2="5.988" gradientTransform="matrix(5.6190474,0,0,4.9043651,491.99998,46.207937)" gradientUnits="userSpaceOnUse" xlink:href="#linearGradient3187-7-5"/><linearGradient id="linearGradient3133-9" x1="36.357" x2="36.357" y1="16" y2="73.995" gradientTransform="matrix(5.6190474,0,0,4.9043651,-110.76903,34.465266)" gradientUnits="userSpaceOnUse" xlink:href="#linearGradient3737-8-0"/><linearGradient id="linearGradient3737-8-0"><stop id="stop3739-8-3" offset="0" stop-color="#fff" stop-opacity="1"/><stop id="stop3741-8-0" offset="1" stop-color="#fff" stop-opacity="0"/></linearGradient><linearGradient id="linearGradient3370" x1="36.357" x2="36.357" y1="16" y2="73.995" gradientTransform="matrix(5.6190474,0,0,4.9043651,471.99997,-67.677006)" gradientUnits="userSpaceOnUse" xlink:href="#linearGradient3737-8-0"/><linearGradient id="linearGradient3090" x1="48" x2="48" y1="78" y2="5.988" gradientTransform="matrix(5.6190474,0,0,4.9043651,491.99998,58.207937)" gradientUnits="userSpaceOnUse" xlink:href="#linearGradient3187-7-5"/><linearGradient id="linearGradient3099" x1="34.86" x2="34.994" y1="16.275" y2="28.906" gradientTransform="matrix(4.4715789,0,0,4.4715789,475.53325,-30.196581)" gradientUnits="userSpaceOnUse" xlink:href="#linearGradient4008-4-7"/><linearGradient id="linearGradient3090-9" x1="48" x2="48" y1="78" y2="5.988" gradientTransform="matrix(5.6190474,0,0,4.9043651,491.99998,58.207937)" gradientUnits="userSpaceOnUse" xlink:href="#linearGradient3187-7-5-1"/><linearGradient id="linearGradient3187-7-5-1"><stop id="stop3189-4-5-4" offset="0" stop-color="#c29656" stop-opacity="1"/><stop id="stop3191-1-8-0" offset="1" stop-color="#ddc08b" stop-opacity="1"/></linearGradient><linearGradient id="linearGradient3118" x1="48" x2="48" y1="78" y2="5.988" gradientTransform="matrix(5.6190474,0,0,4.9043651,471.99998,-18.448313)" gradientUnits="userSpaceOnUse" xlink:href="#linearGradient3187-7-5-1"/><linearGradient id="linearGradient3136" x1="48" x2="48" y1="78" y2="5.988" gradientTransform="matrix(5.6190474,0,0,4.9043651,491.99998,58.207937)" gradientUnits="userSpaceOnUse" xlink:href="#linearGradient3187-7-5"/><linearGradient id="linearGradient3143" x1="48" x2="48" y1="78" y2="5.988" gradientTransform="matrix(5.6190474,0,0,4.9043651,491.99998,58.207937)" gradientUnits="userSpaceOnUse" xlink:href="#linearGradient3187-7-5"/><linearGradient id="linearGradient3133-9-1" x1="36.357" x2="36.357" y1="16" y2="73.995" gradientTransform="matrix(5.6190474,0,0,4.9043651,-110.76903,34.465266)" gradientUnits="userSpaceOnUse" xlink:href="#linearGradient3737-8-0-1"/><linearGradient id="linearGradient3737-8-0-1"><stop id="stop3739-8-3-5" offset="0" stop-color="#fff" stop-opacity="1"/><stop id="stop3741-8-0-2" offset="1" stop-color="#fff" stop-opacity="0"/></linearGradient><linearGradient id="linearGradient3161" x1="36.357" x2="36.357" y1="16" y2="73.995" gradientTransform="matrix(5.6190474,0,0,4.9043651,-130.76903,-47.190982)" gradientUnits="userSpaceOnUse" xlink:href="#linearGradient3737-8-0-1"/><linearGradient id="linearGradient3186" x1="34.86" x2="34.994" y1="16.275" y2="28.906" gradientTransform="matrix(4.4715789,0,0,4.4715789,475.53325,-30.196581)" gradientUnits="userSpaceOnUse" xlink:href="#linearGradient4008-4-7"/><linearGradient id="linearGradient3189" x1="34.86" x2="34.994" y1="16.275" y2="28.906" gradientTransform="matrix(4.4715789,0,0,4.4715789,391.53325,-30.196581)" gradientUnits="userSpaceOnUse" xlink:href="#linearGradient4008-4-7"/><radialGradient id="radialGradient3396" cx="558.354" cy="385.484" r="191.619" fx="558.354" fy="385.484" gradientTransform="matrix(1,0,0,1.0499906,0,-19.270593)" gradientUnits="userSpaceOnUse" xlink:href="#XMLID_74_-8-1"/><linearGradient id="XMLID_74_-8-1" x1="64.478" x2="78.466" y1="56.301" y2="48.085" gradientUnits="userSpaceOnUse"><stop id="stop153-2-2" offset="0" stop-color="#fd8700" stop-opacity="1"/><stop id="stop155-3-8" offset=".859" stop-color="#ff9500" stop-opacity="1"/><stop id="stop157-94-6" offset="1" stop-color="#ff9a01" stop-opacity="1"/></linearGradient><linearGradient id="linearGradient3129" x1="48" x2="48" y1="78" y2="5.988" gradientTransform="matrix(5.6190474,0,0,4.9043651,1060,58.207937)" gradientUnits="userSpaceOnUse" xlink:href="#linearGradient3187-7-5"/></defs><metadata id="metadata7"/><g id="g4103" transform="translate(-11.985071,-592.11719)"><rect id="rect6187" width="487" height="487" x="31.985" y="612.117" fill="url(#linearGradient4114-2-6)" fill-opacity="1" fill-rule="nonzero" stroke="none" stroke-width="1.5" color="#000" display="inline" enable-background="accumulate" opacity=".1" overflow="visible" ry="101.458" visibility="visible" style="marker:none"/><rect id="rect6191" width="491" height="491" x="31.985" y="612.117" fill="url(#linearGradient4112-2-6)" fill-opacity="1" fill-rule="nonzero" stroke="none" stroke-width="1.5" color="#000" display="inline" enable-background="accumulate" opacity=".08" overflow="visible" ry="102.292" visibility="visible" style="marker:none"/><rect id="rect6183" width="483" height="483" x="31.985" y="612.117" fill="url(#linearGradient4110-6-7)" fill-opacity="1" fill-rule="nonzero" stroke="none" stroke-width="1.5" color="#000" display="inline" enable-background="accumulate" opacity=".2" overflow="visible" ry="100.625" visibility="visible" style="marker:none"/><rect id="rect6179" width="479" height="479" x="31.985" y="612.117" fill="url(#linearGradient4116-6-3)" fill-opacity="1" fill-rule="nonzero" stroke="none" stroke-width="1.5" color="#000" display="inline" enable-background="accumulate" opacity=".25" overflow="visible" ry="99.792" visibility="visible" style="marker:none"/><rect id="rect5574" width="475.5" height="475.5" x="31.985" y="612.117" fill="url(#linearGradient5342-3)" fill-opacity="1" fill-rule="nonzero" stroke="none" stroke-width="1.5" color="#000" display="inline" enable-background="accumulate" opacity=".25" overflow="visible" ry="99.063" visibility="visible" style="marker:none"/></g><path id="rect5505" fill="url(#linearGradient3231)" fill-opacity="1" fill-rule="nonzero" stroke="none" stroke-width="1" d="M 118.34375,20 C 63.867087,20 20,63.867084 20,118.34375 l 0,23.0625 0,252.25 C 20,448.13291 63.867087,492 118.34375,492 l 275.3125,0 C 448.13292,492 492,448.13291 492,393.65625 l 0,-252.25 0,-23.0625 C 492,63.867084 448.13292,20 393.65625,20 l -275.3125,0 z" color="#000" display="inline" enable-background="accumulate" overflow="visible" visibility="visible" style="marker:none"/><path id="rect6809-2-3" fill="url(#linearGradient3244)" fill-opacity="1" fill-rule="nonzero" stroke="none" stroke-width="1.5" d="M 118.3124,20 C 63.8357,20 19.9999,63.83583 19.9999,118.3125 l 0,275.34375 C 19.9999,448.13292 63.8357,492 118.3124,492 l 2.9375,0 c -53.3225,0 -96.25,-42.9275 -96.25,-96.25 l 0,-269.5 C 24.9999,72.9275 67.9274,30 121.2499,30 L 390.75,30 C 444.0725,30 487,72.9275 487,126.25 l 0,269.5 C 487,449.0725 444.0725,492 390.75,492 l 2.9062,0 C 448.1329,492 492,448.13292 492,393.65625 L 492,118.3125 C 492,63.83583 448.1329,20 393.6562,20 l -275.3438,0 z" color="#000" display="inline" enable-background="accumulate" opacity=".3" overflow="visible" visibility="visible" style="marker:none"/><path d="M 67.0625 76.65625 C 42.85934 76.65625 20 95.7349 20 119.75 L 20 235.625 L 20 256.5625 L 20 352.75 L 20 393.65625 C 20 448.13291 63.867087 492 118.34375 492 L 393.65625 492 C 448.13292 492 492 448.13291 492 393.65625 L 492 352.75 L 492 256.5625 L 492 235.625 L 492 151.4375 C 492 127.42239 472.1407 108.34375 444.9375 108.34375 L 209.21875 108.34375 C 190.60301 89.019876 189.11124 79.81667 170.03125 76.65625 L 67.0625 76.65625 z" style="marker:none" id="path3181" fill="url(#linearGradient3136)" fill-opacity="1" fill-rule="nonzero" stroke="none" stroke-width="1" color="#000" display="inline" enable-background="accumulate" overflow="visible" visibility="visible"/><path id="path3116" fill="#000" fill-opacity=".157" fill-rule="nonzero" stroke="none" stroke-width="1" d="M 256 195.96875 C 236.89202 195.96875 236.62755 195.99315 234.625 197.0625 C 232.68938 198.09607 230.77812 200.17085 229.84375 202.25 C 229.60498 202.78131 229.28921 218.87234 229.15625 238 L 228.9375 272.78125 L 227.78125 274.625 C 227.15015 275.63912 225.76525 277.03731 224.6875 277.75 L 222.71875 279.0625 L 187.625 279.28125 L 152.53125 279.53125 L 150.65625 280.6875 C 149.62674 281.32682 148.17181 282.85658 147.40625 284.0625 L 146 286.25 L 146 305.71875 C 146 323.92364 146.078 325.32583 146.9375 327 C 147.76371 328.60944 148.86626 329.83937 150.5625 331.0625 L 311.5 492 L 393.65625 492 C 442.50192 492 482.81232 456.71669 490.625 410.15625 L 277.375 197.0625 C 275.37246 195.99316 275.10799 195.96875 256 195.96875 z" color="#000" display="inline" enable-background="accumulate" opacity=".9" overflow="visible" visibility="visible" style="marker:none"/><path id="path3981-7" fill="url(#linearGradient3241)" fill-opacity="1" fill-rule="nonzero" stroke="none" stroke-width="1.5" d="M 118.3124,492 C 63.8357,492 19.9999,448.16417 19.9999,393.6875 l 0,-275.34375 C 19.9999,63.86708 63.8357,20 118.3124,20 l 2.9375,0 c -53.3225,0 -96.25,42.9275 -96.25,96.25 l 0,269.5 c 0,53.3225 42.9275,96.25 96.25,96.25 L 390.75,482 C 444.0725,482 487,439.0725 487,385.75 l 0,-269.5 C 487,62.9275 444.0725,20 390.75,20 l 2.9062,0 C 448.1329,20 492,63.86708 492,118.34375 l 0,275.34375 C 492,448.16417 448.1329,492 393.6562,492 l -275.3438,0 z" color="#000" display="inline" enable-background="accumulate" opacity=".2" overflow="visible" visibility="visible" style="marker:none"/><path id="path3850" fill="url(#linearGradient3179)" fill-opacity="1" fill-rule="nonzero" stroke="none" d="m 15.96875,22.53125 c -2.845903,0.0043 -5.433244,2.591597 -5.4375,5.4375 l 0,48.0625 c 0.0043,2.845903 2.591597,5.433244 5.4375,5.4375 l 64.0625,0 c 2.845903,-0.0043 5.433244,-2.591597 5.4375,-5.4375 l 0,-48.0625 c -0.0043,-2.845903 -2.591597,-5.433244 -5.4375,-5.4375 z" clip-path="url(#clipPath3860)" display="inline" filter="url(#filter3870)" opacity=".15" transform="matrix(5.6190474,0,0,4.9043651,599.66491,31.270067)"/><path id="path3139" fill="url(#linearGradient3133-9-1)" fill-opacity="1" fill-rule="nonzero" stroke="none" stroke-width="1" d="M 67.0625 76.65625 C 42.85934 76.65625 20 95.7349 20 119.75 L 20 129.75 C 20 105.7349 42.85934 86.65625 67.0625 86.65625 L 170.03125 86.65625 C 189.11124 89.81667 190.60301 99.019876 209.21875 118.34375 L 444.9375 118.34375 C 472.1407 118.34375 492 137.42239 492 161.4375 L 492 151.4375 C 492 127.42239 472.1407 108.34375 444.9375 108.34375 L 209.21875 108.34375 C 190.60301 89.019876 189.11124 79.81667 170.03125 76.65625 L 67.0625 76.65625 z" color="#000" display="inline" enable-background="accumulate" opacity=".35" overflow="visible" visibility="visible" style="marker:none"/><path id="path3124" fill="url(#linearGradient3129)" fill-opacity="1" fill-rule="nonzero" stroke="none" stroke-width="1" d="m 588,119.75 0,115.875 0,20.9375 0,96.1875 0,40.90625 C 588,448.13291 631.86709,492 686.34375,492 l 275.3125,0 C 1016.1329,492 1060,448.13291 1060,393.65625 l 0,-40.90625 0,-96.1875 0,-20.9375 0,-84.1875 c 0,-24.01511 -19.8593,-31.6875 -47.0625,-31.6875 l -235.71875,0 z" color="#000" display="inline" enable-background="accumulate" overflow="visible" visibility="visible" style="marker:none"/><path id="path3085" fill="#fff" fill-opacity="1" fill-rule="nonzero" stroke="none" stroke-width="1" d="m 235.44594,415.21833 c -2.03348,-0.8799 -4.14577,-2.80829 -5.24097,-4.78466 -0.72085,-1.30083 -0.82772,-5.01052 -1.04474,-36.26245 l -0.24176,-34.81337 -1.29712,-1.95754 c -0.71343,-1.07666 -2.1277,-2.47339 -3.14286,-3.10385 l -1.84573,-1.14628 -34.83505,-0.24152 c -33.04936,-0.22913 -34.90828,-0.28811 -36.26374,-1.15072 -2.3063,-1.46772 -3.63757,-2.83601 -4.61861,-4.74705 -0.85945,-1.67417 -0.91998,-3.07426 -0.91998,-21.27915 l 0,-19.48706 1.3919,-2.19256 c 0.76556,-1.20592 2.23423,-2.71565 3.26374,-3.35497 l 1.87183,-1.1624 35.09079,-0.2415 35.09078,-0.24152 1.95957,-1.29579 c 1.07775,-0.71269 2.47592,-2.12553 3.10702,-3.13965 l 1.14746,-1.84384 0.24176,-34.77758 c 0.13296,-19.12766 0.43712,-35.21229 0.67589,-35.7436 0.93437,-2.07915 2.85606,-4.16338 4.79168,-5.19695 2.00255,-1.06932 2.25961,-1.08234 21.36759,-1.08234 19.10799,0 19.36507,0.013 21.36761,1.08234 1.93561,1.03357 3.8573,3.1178 4.79165,5.19695 0.23881,0.53131 0.54294,16.63203 0.67591,35.77935 l 0.24175,34.81331 1.29713,1.95761 c 0.71343,1.07669 2.12771,2.47345 3.14286,3.10391 l 1.84573,1.14628 35.05493,0.24152 35.05495,0.2415 1.87184,1.1624 c 1.0295,0.63932 2.49818,2.14905 3.26374,3.35497 l 1.39189,2.19256 0,19.48706 c 0,18.20489 -0.0605,19.60498 -0.91998,21.27915 -0.98101,1.91104 -2.31228,3.27933 -4.61861,4.74705 -1.35544,0.86261 -3.21437,0.92159 -36.26374,1.15072 l -34.83502,0.24152 -1.84573,1.14628 c -1.01515,0.63046 -2.42943,2.02719 -3.14286,3.10385 l -1.29713,1.95754 -0.24175,34.81337 c -0.26565,38.25261 -0.0827,36.0367 -3.22056,39.01419 -2.90908,2.76042 -3.28637,2.8047 -23.71997,2.78409 -15.65969,-0.0159 -19.03083,-0.13964 -20.44409,-0.75117 z" color="#000" display="inline" enable-background="accumulate" opacity=".9" overflow="visible" visibility="visible" style="marker:none"/></svg>