<svg xmlns="http://www.w3.org/2000/svg" xmlns:svg="http://www.w3.org/2000/svg" xmlns:xlink="http://www.w3.org/1999/xlink" id="svg2" width="512" height="512" version="1.1"><defs id="defs4"><linearGradient id="linearGradient4114-2-6" x1="1012.513" x2="1006.808" y1="484.417" y2="20.626" gradientTransform="matrix(1.0317796,0,0,1.0317796,-830.86406,592.67791)" gradientUnits="userSpaceOnUse" xlink:href="#ButtonShadow-0-1-1-5-9"/><linearGradient id="ButtonShadow-0-1-1-5-9" x1="45.448" x2="45.448" y1="92.54" y2="7.017" gradientTransform="matrix(1.0058652,0,0,0.994169,100,0)" gradientUnits="userSpaceOnUse"><stop id="stop3750-8-9-3-6-4" offset="0" stop-color="#000" stop-opacity="1"/><stop id="stop3752-5-6-4-2-9" offset="1" stop-color="#000" stop-opacity=".588"/></linearGradient><linearGradient id="linearGradient4112-2-6" x1="1012.513" x2="1006.808" y1="484.417" y2="20.626" gradientTransform="matrix(1.0402541,0,0,1.0402541,-837.95116,592.51825)" gradientUnits="userSpaceOnUse" xlink:href="#ButtonShadow-0-1-1-5-9"/><linearGradient id="linearGradient4110-6-7" x1="1012.513" x2="1006.808" y1="484.417" y2="20.626" gradientTransform="matrix(1.023305,0,0,1.023305,-823.77704,592.83757)" gradientUnits="userSpaceOnUse" xlink:href="#ButtonShadow-0-1-1-5-9"/><linearGradient id="linearGradient4116-6-3" x1="1012.513" x2="1006.808" y1="484.417" y2="20.626" gradientTransform="matrix(1.0148305,0,0,1.0148305,-816.68996,592.99723)" gradientUnits="userSpaceOnUse" xlink:href="#ButtonShadow-0-1-1-5-9"/><linearGradient id="linearGradient5342-3" x1="1012.513" x2="1006.808" y1="484.417" y2="20.626" gradientTransform="matrix(1.0074153,0,0,1.0074153,-810.48879,593.1369)" gradientUnits="userSpaceOnUse" xlink:href="#ButtonShadow-0-1-1-5-9"/><linearGradient id="linearGradient3737-9"><stop id="stop3739-7" offset="0" stop-color="#fff" stop-opacity="1"/><stop id="stop3741-4" offset="1" stop-color="#fff" stop-opacity="0"/></linearGradient><linearGradient id="linearGradient4046-3"><stop id="stop4048-7" offset="0" stop-color="#000" stop-opacity="1"/><stop id="stop4050-73" offset="1" stop-color="#fff" stop-opacity=".2"/></linearGradient><linearGradient id="linearGradient3874"><stop id="stop3876" offset="0" stop-color="#fff" stop-opacity="1"/><stop id="stop3878" offset="1" stop-color="#fff" stop-opacity="0"/></linearGradient><clipPath id="clipPath3860"><rect id="rect3862" width="84" height="72" x="6" y="18" fill="#f0f" fill-opacity="1" fill-rule="nonzero" stroke="none" rx="6" ry="6"/></clipPath><filter id="filter3870" width="1.331" height="1.394" x="-.166" y="-.197" color-interpolation-filters="sRGB"><feGaussianBlur id="feGaussianBlur3872" stdDeviation="5.17"/></filter><linearGradient id="linearGradient4008-4-7"><stop id="stop4010-2-0" offset="0" stop-color="#dbbb83" stop-opacity="1"/><stop id="stop4012-5-1" offset=".717" stop-color="#c29856" stop-opacity="1"/><stop id="stop4014-6-6" offset="1" stop-color="#a2773a" stop-opacity="1"/></linearGradient><linearGradient id="linearGradient3179" x1="48.022" x2="48.022" y1="22.933" y2="81.481" gradientUnits="userSpaceOnUse" xlink:href="#linearGradient3874"/><linearGradient id="linearGradient3187-7-5"><stop id="stop3189-4-5" offset="0" stop-color="#c29656" stop-opacity="1"/><stop id="stop3191-1-8" offset="1" stop-color="#dbba83" stop-opacity="1"/></linearGradient><linearGradient id="linearGradient3231" x1="34.86" x2="34.994" y1="16.275" y2="28.906" gradientTransform="matrix(4.4715789,0,0,4.4715789,475.53325,-30.196581)" gradientUnits="userSpaceOnUse" xlink:href="#linearGradient4008-4-7"/><linearGradient id="linearGradient3241" x1="1764.649" x2="1763.69" y1="155.597" y2="-55.941" gradientTransform="translate(-1532.187,330.41615)" gradientUnits="userSpaceOnUse" xlink:href="#linearGradient4046-3"/><linearGradient id="linearGradient3244" x1="993.439" x2="988.786" y1="51.512" y2="363.738" gradientTransform="translate(-753.58721,-30.14348)" gradientUnits="userSpaceOnUse" xlink:href="#linearGradient3737-9"/><linearGradient id="linearGradient3136" x1="48" x2="48" y1="78" y2="5.988" gradientTransform="matrix(5.6190474,0,0,4.9043651,491.99998,58.207937)" gradientUnits="userSpaceOnUse" xlink:href="#linearGradient3187-7-5"/><linearGradient id="linearGradient3133-9-1" x1="36.357" x2="36.357" y1="16" y2="73.995" gradientTransform="matrix(5.6190474,0,0,4.9043651,-110.76903,34.465266)" gradientUnits="userSpaceOnUse" xlink:href="#linearGradient3737-8-0-1"/><linearGradient id="linearGradient3737-8-0-1"><stop id="stop3739-8-3-5" offset="0" stop-color="#fff" stop-opacity="1"/><stop id="stop3741-8-0-2" offset="1" stop-color="#fff" stop-opacity="0"/></linearGradient><linearGradient id="linearGradient4008-4-7-2"><stop id="stop4010-2-0-9" offset="0" stop-color="#dab980" stop-opacity="1"/><stop id="stop4012-5-1-1" offset=".717" stop-color="#c29856" stop-opacity="1"/><stop id="stop4014-6-6-2" offset="1" stop-color="#a2773a" stop-opacity="1"/></linearGradient><linearGradient id="linearGradient3756" x1="48" x2="48" y1="78" y2="5.988" gradientTransform="matrix(5.6190474,0,0,4.9043651,-170.71372,8.7516906)" gradientUnits="userSpaceOnUse" xlink:href="#linearGradient3187-7-5-7"/><linearGradient id="linearGradient3187-7-5-7"><stop id="stop3189-4-5-0" offset="0" stop-color="#c29656" stop-opacity="1"/><stop id="stop3191-1-8-9" offset="1" stop-color="#ddc08b" stop-opacity="1"/></linearGradient><linearGradient id="linearGradient3822" x1="34.86" x2="34.994" y1="16.275" y2="28.906" gradientTransform="matrix(4.4715789,0,0,4.4715789,-908.22105,-66.542998)" gradientUnits="userSpaceOnUse" xlink:href="#linearGradient4008-4-7-2"/><linearGradient id="linearGradient3824" x1="48" x2="48" y1="78" y2="5.988" gradientTransform="matrix(5.6190474,0,0,4.9043651,-891.75432,21.86152)" gradientUnits="userSpaceOnUse" xlink:href="#linearGradient3187-7-5-7"/></defs><metadata id="metadata7"/><g id="g4103" transform="translate(-11.985071,-592.11719)"><rect id="rect6187" width="487" height="487" x="31.985" y="612.117" fill="url(#linearGradient4114-2-6)" fill-opacity="1" fill-rule="nonzero" stroke="none" stroke-width="1.5" color="#000" display="inline" enable-background="accumulate" opacity=".1" overflow="visible" ry="101.458" visibility="visible" style="marker:none"/><rect id="rect6191" width="491" height="491" x="31.985" y="612.117" fill="url(#linearGradient4112-2-6)" fill-opacity="1" fill-rule="nonzero" stroke="none" stroke-width="1.5" color="#000" display="inline" enable-background="accumulate" opacity=".08" overflow="visible" ry="102.292" visibility="visible" style="marker:none"/><rect id="rect6183" width="483" height="483" x="31.985" y="612.117" fill="url(#linearGradient4110-6-7)" fill-opacity="1" fill-rule="nonzero" stroke="none" stroke-width="1.5" color="#000" display="inline" enable-background="accumulate" opacity=".2" overflow="visible" ry="100.625" visibility="visible" style="marker:none"/><rect id="rect6179" width="479" height="479" x="31.985" y="612.117" fill="url(#linearGradient4116-6-3)" fill-opacity="1" fill-rule="nonzero" stroke="none" stroke-width="1.5" color="#000" display="inline" enable-background="accumulate" opacity=".25" overflow="visible" ry="99.792" visibility="visible" style="marker:none"/><rect id="rect5574" width="475.5" height="475.5" x="31.985" y="612.117" fill="url(#linearGradient5342-3)" fill-opacity="1" fill-rule="nonzero" stroke="none" stroke-width="1.5" color="#000" display="inline" enable-background="accumulate" opacity=".25" overflow="visible" ry="99.063" visibility="visible" style="marker:none"/></g><path id="rect5505" fill="url(#linearGradient3231)" fill-opacity="1" fill-rule="nonzero" stroke="none" stroke-width="1" d="M 118.34375,20 C 63.867087,20 20,63.867084 20,118.34375 l 0,23.0625 0,252.25 C 20,448.13291 63.867087,492 118.34375,492 l 275.3125,0 C 448.13292,492 492,448.13291 492,393.65625 l 0,-252.25 0,-23.0625 C 492,63.867084 448.13292,20 393.65625,20 l -275.3125,0 z" color="#000" display="inline" enable-background="accumulate" overflow="visible" visibility="visible" style="marker:none"/><path id="rect6809-2-3" fill="url(#linearGradient3244)" fill-opacity="1" fill-rule="nonzero" stroke="none" stroke-width="1.5" d="M 118.3124,20 C 63.8357,20 19.9999,63.83583 19.9999,118.3125 l 0,275.34375 C 19.9999,448.13292 63.8357,492 118.3124,492 l 2.9375,0 c -53.3225,0 -96.25,-42.9275 -96.25,-96.25 l 0,-269.5 C 24.9999,72.9275 67.9274,30 121.2499,30 L 390.75,30 C 444.0725,30 487,72.9275 487,126.25 l 0,269.5 C 487,449.0725 444.0725,492 390.75,492 l 2.9062,0 C 448.1329,492 492,448.13292 492,393.65625 L 492,118.3125 C 492,63.83583 448.1329,20 393.6562,20 l -275.3438,0 z" color="#000" display="inline" enable-background="accumulate" opacity=".3" overflow="visible" visibility="visible" style="marker:none"/><path id="path3181" fill="url(#linearGradient3136)" fill-opacity="1" fill-rule="nonzero" stroke="none" stroke-width="1" d="M 67.0625 76.65625 C 42.85934 76.65625 20 95.7349 20 119.75 L 20 235.625 L 20 256.5625 L 20 352.75 L 20 393.65625 C 20 448.13291 63.867087 492 118.34375 492 L 393.65625 492 C 448.13292 492 492 448.13291 492 393.65625 L 492 352.75 L 492 256.5625 L 492 235.625 L 492 151.4375 C 492 127.42239 472.1407 108.34375 444.9375 108.34375 L 209.21875 108.34375 C 190.60301 89.019876 189.11124 79.81667 170.03125 76.65625 L 67.0625 76.65625 z" color="#000" display="inline" enable-background="accumulate" overflow="visible" visibility="visible" style="marker:none"/><path id="path3981-7" fill="url(#linearGradient3241)" fill-opacity="1" fill-rule="nonzero" stroke="none" stroke-width="1.5" d="M 118.3124,492 C 63.8357,492 19.9999,448.16417 19.9999,393.6875 l 0,-275.34375 C 19.9999,63.86708 63.8357,20 118.3124,20 l 2.9375,0 c -53.3225,0 -96.25,42.9275 -96.25,96.25 l 0,269.5 c 0,53.3225 42.9275,96.25 96.25,96.25 L 390.75,482 C 444.0725,482 487,439.0725 487,385.75 l 0,-269.5 C 487,62.9275 444.0725,20 390.75,20 l 2.9062,0 C 448.1329,20 492,63.86708 492,118.34375 l 0,275.34375 C 492,448.16417 448.1329,492 393.6562,492 l -275.3438,0 z" color="#000" display="inline" enable-background="accumulate" opacity=".2" overflow="visible" visibility="visible" style="marker:none"/><path id="path3850" fill="url(#linearGradient3179)" fill-opacity="1" fill-rule="nonzero" stroke="none" d="m 15.96875,22.53125 c -2.845903,0.0043 -5.433244,2.591597 -5.4375,5.4375 l 0,48.0625 c 0.0043,2.845903 2.591597,5.433244 5.4375,5.4375 l 64.0625,0 c 2.845903,-0.0043 5.433244,-2.591597 5.4375,-5.4375 l 0,-48.0625 c -0.0043,-2.845903 -2.591597,-5.433244 -5.4375,-5.4375 z" clip-path="url(#clipPath3860)" display="inline" filter="url(#filter3870)" opacity=".15" transform="matrix(5.6190474,0,0,4.9043651,599.66491,31.270067)"/><path id="path3139" fill="url(#linearGradient3133-9-1)" fill-opacity="1" fill-rule="nonzero" stroke="none" stroke-width="1" d="M 67.0625 76.65625 C 42.85934 76.65625 20 95.7349 20 119.75 L 20 129.75 C 20 105.7349 42.85934 86.65625 67.0625 86.65625 L 170.03125 86.65625 C 189.11124 89.81667 190.60301 99.019876 209.21875 118.34375 L 444.9375 118.34375 C 472.1407 118.34375 492 137.42239 492 161.4375 L 492 151.4375 C 492 127.42239 472.1407 108.34375 444.9375 108.34375 L 209.21875 108.34375 C 190.60301 89.019876 189.11124 79.81667 170.03125 76.65625 L 67.0625 76.65625 z" color="#000" display="inline" enable-background="accumulate" opacity=".35" overflow="visible" visibility="visible" style="marker:none"/><g id="g4251" fill="#fff" stroke="#000" stroke-dasharray="none" stroke-miterlimit="4" stroke-opacity="1" stroke-width=".388" transform="matrix(14.203077,0,0,12.62969,105.02783,153.04746)"><path display="inline" style="line-height:normal;text-indent:0;text-align:start;text-decoration-line:none;text-decoration-style:solid;text-decoration-color:#000;text-transform:none;block-progression:tb;white-space:normal;isolation:auto;mix-blend-mode:normal;solid-color:#000;solid-opacity:1;marker:none" id="path4183" fill="#fff" fill-opacity="1" fill-rule="nonzero" stroke="#000" stroke-dasharray="none" stroke-dashoffset="0" stroke-linecap="round" stroke-linejoin="round" stroke-miterlimit="4" stroke-opacity="1" stroke-width=".388" d="M 3.5,3 A 0.50005,0.50005 0 0 0 3,3.5 l 0,12 A 0.50005,0.50005 0 0 0 3.5,16 l 15,0 A 0.50005,0.50005 0 0 0 19,15.5 l 0,-12 A 0.50005,0.50005 0 0 0 18.5,3 L 3.5,3 Z M 5,5 17,5 17,14 5,14 5,5 Z" baseline-shift="baseline" clip-rule="nonzero" color="#000" color-interpolation="sRGB" color-interpolation-filters="linearRGB" color-rendering="auto" direction="ltr" enable-background="accumulate" font-family="sans-serif" font-size="medium" font-stretch="normal" font-style="normal" font-variant="normal" font-weight="normal" image-rendering="auto" letter-spacing="normal" opacity=".9" overflow="visible" shape-rendering="auto" text-anchor="start" text-decoration="none" text-rendering="auto" visibility="visible" word-spacing="normal" writing-mode="lr-tb"/><path id="path3927" fill="#fff" fill-opacity="1" stroke="#000" stroke-dasharray="none" stroke-dashoffset="0" stroke-linecap="round" stroke-linejoin="round" stroke-miterlimit="4" stroke-opacity="1" stroke-width=".388" d="m 5.0000003,4.9999997 11.9999997,0 0,9.0000013 -11.9999997,0 z" display="inline" opacity=".2" style="marker:none"/><path id="rect2932" fill="#fff" fill-opacity="1" stroke="#000" stroke-dasharray="none" stroke-dashoffset="0" stroke-linecap="round" stroke-linejoin="round" stroke-miterlimit="4" stroke-opacity="1" stroke-width=".388" d="m 4.977426,18.001133 c -0.1254533,0.0182 -0.2420447,0.06242 -0.3293595,0.124929 L 2.1543448,19.281657 C 1.8070938,19.511296 2.0879848,19.987786 2.5778068,20 l 16.8443852,0 c 0.489824,-0.01221 0.770714,-0.488704 0.423463,-0.718343 l -2.493721,-1.155595 c -0.111015,-0.07475 -0.265481,-0.120321 -0.423463,-0.124929 l -1.411542,0 -1.505642,0 -6.0225741,0 -1.5056434,0 -1.4115407,0 c -0.03131,-0.0015 -0.062793,-0.0015 -0.094103,0 z" display="inline" opacity=".9" style="marker:none"/></g></svg>