<svg xmlns="http://www.w3.org/2000/svg" xmlns:svg="http://www.w3.org/2000/svg" xmlns:xlink="http://www.w3.org/1999/xlink" id="svg3007" width="100%" height="100%" version="1.1" viewBox="0 0 22 22"><metadata id="metadata3037"/><defs id="defs3035"><linearGradient id="linearGradient4008-4-7"><stop id="stop4010-2-0" offset="0" stop-color="#dab980" stop-opacity="1"/><stop id="stop4012-5-1" offset=".717" stop-color="#c29856" stop-opacity="1"/><stop id="stop4014-6-6" offset="1" stop-color="#a2773a" stop-opacity="1"/></linearGradient><linearGradient id="linearGradient3756" x1="48" x2="48" y1="78" y2="5.988" gradientTransform="matrix(5.6190474,0,0,4.9043651,-170.71372,8.7516906)" gradientUnits="userSpaceOnUse" xlink:href="#linearGradient3187-7-5"/><linearGradient id="linearGradient3187-7-5"><stop id="stop3189-4-5" offset="0" stop-color="#c29656" stop-opacity="1"/><stop id="stop3191-1-8" offset="1" stop-color="#ddc08b" stop-opacity="1"/></linearGradient><linearGradient id="linearGradient3822" x1="34.86" x2="34.994" y1="16.275" y2="28.906" gradientTransform="matrix(4.4715789,0,0,4.4715789,-908.22105,-66.542998)" gradientUnits="userSpaceOnUse" xlink:href="#linearGradient4008-4-7"/><linearGradient id="linearGradient3824" x1="48" x2="48" y1="78" y2="5.988" gradientTransform="matrix(5.6190474,0,0,4.9043651,-891.75432,21.86152)" gradientUnits="userSpaceOnUse" xlink:href="#linearGradient3187-7-5"/></defs><path stroke-opacity="1" style="marker:none" id="path4175" fill="#6297a3" fill-opacity="1" fill-rule="nonzero" stroke="none" stroke-dasharray="none" stroke-dashoffset="0" stroke-linecap="butt" stroke-linejoin="miter" stroke-miterlimit="4" stroke-width="1" d="m 7.5714287,7.5714283 0,6.8571427 6.8571423,0 0,-6.8571427 -6.8571423,0 z" color="#000" display="inline" enable-background="accumulate" opacity=".9" overflow="visible" visibility="visible"/><path id="path4211" fill="#6297a3" fill-opacity="1" fill-rule="evenodd" stroke="none" stroke-dasharray="none" stroke-dashoffset="0" stroke-linecap="butt" stroke-linejoin="miter" stroke-miterlimit="4" stroke-opacity="1" stroke-width="1" d="m 1.9999999,1.9999999 0,1.0588235 0,1.0588235 1.0588235,0 1.0588235,0 0,-1.0588235 0,-1.0588235 -1.0588235,0 z m 4.235294,2.117647 6.3529411,0 0,-2.117647 -6.3529411,0 z m 8.4705881,0 3.17647,0 0,1.0588235 2.117647,0 0,-2.117647 0,-1.0588235 -1.058823,0 -4.235294,0 z m -12.7058821,8.4705881 2.117647,0 0,-6.3529411 -2.117647,0 z m 15.8823521,1.058823 2.117647,0 0,-6.3529406 -2.117647,0 z m -15.8823521,5.294118 0,1.058823 1.0588235,0 2.117647,0 0,-2.117647 -1.0588235,0 0,-3.17647 -2.117647,0 z m 15.8823521,-1.058824 -2.117647,0 0,2.117647 3.176471,0 1.058823,0 0,-1.058823 0,-3.176471 -2.117647,0 z m -10.5882346,2.117647 6.3529406,0 0,-2.117647 -6.3529406,0 z" baseline-shift="baseline" clip-rule="nonzero" color="#000" color-interpolation="sRGB" color-interpolation-filters="linearRGB" color-rendering="auto" direction="ltr" display="inline" enable-background="accumulate" font-family="sans-serif" font-size="medium" font-stretch="normal" font-style="normal" font-variant="normal" font-weight="normal" image-rendering="auto" letter-spacing="normal" opacity=".2" overflow="visible" shape-rendering="auto" text-anchor="start" text-decoration="none" text-rendering="auto" visibility="visible" word-spacing="normal" writing-mode="lr-tb" style="line-height:normal;text-indent:0;text-align:start;text-decoration-line:none;text-decoration-style:solid;text-decoration-color:#000;text-transform:none;block-progression:tb;white-space:normal;shape-padding:0;isolation:auto;mix-blend-mode:normal;solid-color:#000;solid-opacity:1"/></svg>