<svg xmlns="http://www.w3.org/2000/svg" xmlns:svg="http://www.w3.org/2000/svg" xmlns:xlink="http://www.w3.org/1999/xlink" id="svg3007" width="100%" height="100%" version="1.1" viewBox="0 0 22 22"><metadata id="metadata3037"/><defs id="defs3035"><linearGradient id="linearGradient4008-4-7"><stop id="stop4010-2-0" offset="0" stop-color="#dab980" stop-opacity="1"/><stop id="stop4012-5-1" offset=".717" stop-color="#c29856" stop-opacity="1"/><stop id="stop4014-6-6" offset="1" stop-color="#a2773a" stop-opacity="1"/></linearGradient><linearGradient id="linearGradient3756" x1="48" x2="48" y1="78" y2="5.988" gradientTransform="matrix(5.6190474,0,0,4.9043651,-170.71372,8.7516906)" gradientUnits="userSpaceOnUse" xlink:href="#linearGradient3187-7-5"/><linearGradient id="linearGradient3187-7-5"><stop id="stop3189-4-5" offset="0" stop-color="#c29656" stop-opacity="1"/><stop id="stop3191-1-8" offset="1" stop-color="#ddc08b" stop-opacity="1"/></linearGradient><linearGradient id="linearGradient3822" x1="34.86" x2="34.994" y1="16.275" y2="28.906" gradientTransform="matrix(4.4715789,0,0,4.4715789,-908.22105,-66.542998)" gradientUnits="userSpaceOnUse" xlink:href="#linearGradient4008-4-7"/><linearGradient id="linearGradient3824" x1="48" x2="48" y1="78" y2="5.988" gradientTransform="matrix(5.6190474,0,0,4.9043651,-891.75432,21.86152)" gradientUnits="userSpaceOnUse" xlink:href="#linearGradient3187-7-5"/></defs><path id="path4183" fill="#ef2929" fill-opacity="1" fill-rule="nonzero" stroke="none" stroke-dasharray="none" stroke-dashoffset="0" stroke-linecap="round" stroke-linejoin="round" stroke-miterlimit="4" stroke-opacity="1" stroke-width="10" d="M 3.5 3 A 0.50005 0.50005 0 0 0 3 3.5 L 3 15.5 A 0.50005 0.50005 0 0 0 3.5 16 L 18.5 16 A 0.50005 0.50005 0 0 0 19 15.5 L 19 3.5 A 0.50005 0.50005 0 0 0 18.5 3 L 3.5 3 z M 5 5 L 17 5 L 17 14 L 5 14 L 5 5 z" baseline-shift="baseline" clip-rule="nonzero" color="#000" color-interpolation="sRGB" color-interpolation-filters="linearRGB" color-rendering="auto" direction="ltr" display="inline" enable-background="accumulate" font-family="sans-serif" font-size="medium" font-stretch="normal" font-style="normal" font-variant="normal" font-weight="normal" image-rendering="auto" letter-spacing="normal" opacity=".9" overflow="visible" shape-rendering="auto" text-anchor="start" text-decoration="none" text-rendering="auto" visibility="visible" word-spacing="normal" writing-mode="lr-tb" style="line-height:normal;text-indent:0;text-align:start;text-decoration-line:none;text-decoration-style:solid;text-decoration-color:#000;text-transform:none;block-progression:tb;white-space:normal;shape-padding:0;isolation:auto;mix-blend-mode:normal;solid-color:#000;solid-opacity:1;marker:none"/><path id="path3927" fill="#ef2929" fill-opacity="1" stroke="none" stroke-dasharray="none" stroke-dashoffset="0" stroke-linecap="round" stroke-linejoin="round" stroke-miterlimit="4" stroke-opacity="1" stroke-width="10" d="m 5.0000003,4.9999997 11.9999997,0 0,9.0000013 -11.9999997,0 z" display="inline" opacity=".2" style="marker:none"/><path id="rect2932" fill="#ef2929" fill-opacity="1" stroke="none" stroke-dasharray="none" stroke-dashoffset="0" stroke-linecap="round" stroke-linejoin="round" stroke-miterlimit="4" stroke-opacity="1" stroke-width="10" d="m 4.977426,18.001133 c -0.1254533,0.0182 -0.2420447,0.06242 -0.3293595,0.124929 L 2.1543448,19.281657 C 1.8070938,19.511296 2.0879848,19.987786 2.5778068,20 l 16.8443852,0 c 0.489824,-0.01221 0.770714,-0.488704 0.423463,-0.718343 l -2.493721,-1.155595 c -0.111015,-0.07475 -0.265481,-0.120321 -0.423463,-0.124929 l -1.411542,0 -1.505642,0 -6.0225741,0 -1.5056434,0 -1.4115407,0 c -0.03131,-0.0015 -0.062793,-0.0015 -0.094103,0 z" display="inline" opacity=".9" style="marker:none"/></svg>