<svg xmlns="http://www.w3.org/2000/svg" xmlns:svg="http://www.w3.org/2000/svg" id="svg7384" width="22" height="22" version="1.1" viewBox="0 0 22 22"><metadata id="metadata90"/><title id="title9167">Gnome Symbolic Icon Theme</title><g id="g4157" transform="translate(-16,4)"><path id="path4155" fill="#323232" fill-opacity="1" fill-rule="nonzero" stroke="none" stroke-width="2" d="m 34,4 0,1 -1,0 0,4 1,0 0,1 2,0 0,-1.5 0,-3 0,-1.5 z" color="#000" display="inline" enable-background="accumulate" opacity=".9" overflow="visible" visibility="visible" style="marker:none"/><path id="path4583" fill="#323232" fill-opacity="1" fill-rule="nonzero" stroke="none" stroke-width="2" d="m 18,9 0,1 0,3 0,1 2,0 0,-1 1,0 0,-3 -1,0 0,-1 z" color="#000" display="inline" enable-background="accumulate" opacity=".9" overflow="visible" visibility="visible" style="marker:none"/><path id="path4157" fill="#323232" fill-opacity="1" fill-rule="nonzero" stroke="none" stroke-width="2" d="m 20,0 0,1 1,0 0,3 -1,0 0,1 -2,0 0,-1 0,-3 0,-1 z" color="#000" display="inline" enable-background="accumulate" opacity=".9" overflow="visible" visibility="visible" style="marker:none"/><path id="path4159" fill="none" fill-rule="evenodd" stroke="#323232" stroke-linecap="butt" stroke-linejoin="miter" stroke-opacity="1" stroke-width="1" d="m 21,2.5 4,0 4,6 4,0" opacity=".9"/><path id="path4161" fill="none" fill-rule="evenodd" stroke="#323232" stroke-linecap="butt" stroke-linejoin="miter" stroke-opacity="1" stroke-width="1" d="m 21,11.5 4,0 4,-6 4,0" opacity=".9"/><rect id="rect4163" width="9" height="15" x="22.5" y="-.5" fill="#323232" fill-opacity="1" fill-rule="nonzero" stroke="#323232" stroke-dasharray="none" stroke-dashoffset="0" stroke-linecap="butt" stroke-linejoin="miter" stroke-miterlimit="4" stroke-opacity="1" stroke-width="1" clip-rule="nonzero" color="#000" color-interpolation="sRGB" color-interpolation-filters="linearRGB" color-rendering="auto" display="inline" enable-background="accumulate" image-rendering="auto" opacity=".7" overflow="visible" shape-rendering="auto" text-rendering="auto" visibility="visible" style="isolation:auto;mix-blend-mode:normal;solid-color:#000;solid-opacity:1;marker:none"/></g></svg>