<svg xmlns="http://www.w3.org/2000/svg" xmlns:svg="http://www.w3.org/2000/svg" xmlns:xlink="http://www.w3.org/1999/xlink" id="svg7384" width="22" height="22" version="1.1"><defs id="defs11"><linearGradient id="linearGradient2927-4" x1="11" x2="19" y1="11.016" y2="11.016" gradientTransform="matrix(0,-3.0000004,2.9652505,0,33.335916,111.00001)" gradientUnits="userSpaceOnUse" xlink:href="#linearGradient3183-0"/><linearGradient id="linearGradient3183-0"><stop id="stop3185-9" offset="0" stop-color="#c80000" stop-opacity="1"/><stop id="stop3187-6" offset="1" stop-color="#f3604d" stop-opacity="1"/></linearGradient></defs><metadata id="metadata90"/><title id="title9167">Gnome Symbolic Icon Theme</title><path color="#000" style="text-decoration-line:none;text-decoration-style:solid;text-decoration-color:#000;isolation:auto;mix-blend-mode:normal;solid-color:#000;solid-opacity:1;marker:none" id="path2994" fill="#ef2929" fill-opacity="1" fill-rule="nonzero" stroke="none" stroke-dasharray="none" stroke-dashoffset="0" stroke-linecap="butt" stroke-linejoin="miter" stroke-miterlimit="4" stroke-opacity="1" stroke-width="1.178" d="M 17.404297 3 C 17.267157 3 17.135323 3.0520506 17.039062 3.1503906 L 14.884766 5.3046875 L 13.220703 5.3046875 C 13.083693 5.3036875 12.942663 5.3583281 12.845703 5.4550781 L 10.425781 7.875 C 10.402117 7.8981661 10.389062 7.9295262 10.371094 7.9570312 L 14.050781 11.636719 C 14.076189 11.619489 14.105267 11.607597 14.126953 11.585938 L 16.556641 9.15625 C 16.653441 9.05935 16.708131 8.9280056 16.707031 8.7910156 L 16.707031 7.1171875 L 18.851562 4.9726562 C 19.048192 4.7801563 19.048192 4.4170994 18.851562 4.2246094 L 17.777344 3.1503906 C 17.681044 3.0520906 17.541447 2.9999999 17.404297 3 z" clip-rule="nonzero" color-interpolation="sRGB" color-interpolation-filters="linearRGB" color-rendering="auto" display="inline" enable-background="accumulate" image-rendering="auto" opacity=".9" overflow="visible" shape-rendering="auto" text-decoration="none" text-rendering="auto" visibility="visible"/><path color="#000" style="text-decoration-line:none;text-decoration-style:solid;text-decoration-color:#000;isolation:auto;mix-blend-mode:normal;solid-color:#000;solid-opacity:1;marker:none" id="path3804-7" fill="#ef2929" fill-opacity="1" fill-rule="nonzero" stroke="none" stroke-dasharray="none" stroke-dashoffset="0" stroke-linecap="butt" stroke-linejoin="miter" stroke-miterlimit="4" stroke-opacity="1" stroke-width="1.178" d="M 4.3085938 4.8945312 L 2.8945312 6.3085938 L 7.4414062 10.855469 L 5.4433594 12.847656 C 5.3465594 12.944556 5.2918687 13.083713 5.2929688 13.220703 L 5.2929688 14.884766 L 3.1484375 17.039062 C 2.9518075 17.231562 2.9518075 17.584844 3.1484375 17.777344 L 4.2226562 18.853516 C 4.4151663 19.050126 4.7684175 19.050126 4.9609375 18.853516 L 7.1152344 16.707031 L 8.7792969 16.707031 C 8.9163069 16.708031 9.0573369 16.653391 9.1542969 16.556641 L 11.144531 14.558594 L 15.691406 19.105469 L 17.105469 17.691406 L 4.3085938 4.8945312 z" clip-rule="nonzero" color-interpolation="sRGB" color-interpolation-filters="linearRGB" color-rendering="auto" display="inline" enable-background="accumulate" image-rendering="auto" opacity=".9" overflow="visible" shape-rendering="auto" text-decoration="none" text-rendering="auto" visibility="visible"/></svg>