<svg xmlns="http://www.w3.org/2000/svg" xmlns:svg="http://www.w3.org/2000/svg" id="svg7384" width="22" height="22" version="1.1" viewBox="0 0 22 22"><metadata id="metadata90"/><title id="title9167">Gnome Symbolic Icon Theme</title><path id="path3043" fill="#ef2929" fill-opacity="1" stroke="none" stroke-dasharray="none" stroke-dashoffset="0" stroke-linecap="round" stroke-linejoin="round" stroke-miterlimit="4" stroke-opacity="1" stroke-width="10" d="m 19.685313,8.4048325 c -0.192338,-0.22201 -0.448168,-0.3513759 -0.721045,-0.348044 l -6.056777,0 -2.333563,-2.6935567 C 10.383337,5.139656 10.111513,5.0002989 9.8397725,5.0000558 l -6.790932,0 c -0.545755,-0.00664 -1.054564,0.5806399 -1.048792,1.210587 l 0,9.5939022 c 1.14e-4,0.320129 0.113881,0.626537 0.314637,0.847413 0.189759,0.215448 0.454873,0.347807 0.721046,0.348042 l 6.81715,0 c 0.2717405,-2.43e-4 0.5304375,-0.124488 0.7210465,-0.348042 l 2.346673,-2.70869 6.030557,0 c 0.545755,0.0067 1.054565,-0.58064 1.048793,-1.210588 l 0,-3.4804368 C 20.002851,8.9372709 19.87765,8.6268411 19.685313,8.4048325 Z" opacity=".9" style="marker:none"/></svg>